<svg width="688" height="648" viewBox="0 0 688 648" fill="none" xmlns="http://www.w3.org/2000/svg">
<g opacity="0.05" clip-path="url(#clip0)">
<path d="M344 -25.667C153.94 -25.667 0 125.693 0 312.37C0 461.752 98.556 588.43 235.21 633.093C252.41 636.275 258.717 625.812 258.717 616.839C258.717 608.812 258.43 587.542 258.287 559.362C162.597 579.744 142.416 514.012 142.416 514.012C126.764 474.996 104.146 464.562 104.146 464.562C72.9853 443.606 106.554 444.036 106.554 444.036C141.097 446.387 159.243 478.866 159.243 478.866C189.917 530.552 239.768 515.617 259.433 506.988C262.529 485.116 271.387 470.238 281.22 461.781C204.823 453.324 124.528 424.256 124.528 294.74C124.528 257.846 137.858 227.689 159.931 204.039C156.061 195.496 144.451 161.125 162.941 114.57C162.941 114.57 191.751 105.512 257.541 149.228C285.061 141.718 314.301 137.991 343.541 137.819C372.781 137.991 402.021 141.718 429.541 149.228C494.901 105.512 523.711 114.57 523.711 114.57C542.201 161.125 530.591 195.496 527.151 204.039C549.081 227.689 562.411 257.846 562.411 294.74C562.411 424.6 482.001 453.181 405.461 461.494C417.501 471.642 428.681 492.368 428.681 524.045C428.681 569.281 428.251 605.63 428.251 616.61C428.251 625.468 434.271 636.046 451.901 632.663C589.53 588.287 688 461.523 688 312.37C688 125.693 533.974 -25.667 344 -25.667Z" fill="url(#paint0_linear)"/>
</g>
<defs>
<linearGradient id="paint0_linear" x1="344" y1="-25.667" x2="344" y2="633.676" gradientUnits="userSpaceOnUse">
<stop stop-color="#121214"/>
<stop offset="1" stop-color="#121214" stop-opacity="0"/>
</linearGradient>
<clipPath id="clip0">
<rect width="688" height="688" fill="white" transform="translate(0 -40)"/>
</clipPath>
</defs>
</svg>
